<svg version="1.2" xmlns="http://www.w3.org/2000/svg" viewBox="0 0 1006 618" width="1006" height="618">
	<style>
		.s0 { fill: #d3b077 } 
	</style>
	<path id="&lt;Compound Path&gt;" fill-rule="evenodd" class="s0" d="m274.82 411.09q-13.94 0-23.13-4.34-9.19-4.35-13.7-11.49-4.52-7.14-4.52-15.18 0-9.02 5.42-17.97 5.41-8.94 16.16-15.42 10.75-6.48 26.34-8.12-2.3-3.12-3.45-7.14-1.15-4.02-1.15-7.63 0.17-8.7 4.93-15.34 4.75-6.65 12.22-11.24 7.47-4.6 16-6.98 8.53-2.38 16.08-2.38 4.59 0 9.35 1.23 4.76 1.24 8.04 4.35 3.28 3.12 3.28 8.86 0 4.76-2.95 8.54-2.95 3.77-7.22 3.77-3.12 0-5.41-2.3-2.3-2.29-2.3-5.25 0-3.44 2.21-5.66 2.22-2.22 5.5-2.21 1.48 0 3.37 0.98 1.88 0.98 2.37 1.97 0.17-0.65 0.17-1.81 0-4.43-3.61-6.23-3.61-1.81-7.71-1.81-6.57 0-15.26 3.2-8.7 3.2-16.9 10.42-2.96 2.63-6.08 6.89-3.12 4.27-5.25 9.11-2.13 4.84-2.13 9.76 0 3.78 1.31 6.57 2.47 0 5.66-0.25 3.2-0.24 6.65-0.24 4.27 0 6.73 1.8 2.46 1.81 2.46 4.1 0 1.64-1.97 3.12-1.97 1.48-6.24 1.48-5.41 0-9.76-2.38-4.35-2.38-6.81-4.84-10.83 1.48-18.38 8.04-7.55 6.56-11.48 15.5-3.94 8.95-3.94 17.81 0 7.06 2.71 13.13 2.7 6.07 8.28 9.76 5.58 3.69 14.11 3.69 8.86 0 16.17-3.2 7.3-3.2 12.55-8.29 5.25-5.08 8.12-10.74 2.87-5.66 2.87-10.59 0-4.26-3.03-7.14-3.04-2.86-7.96-4.26-4.92-1.39-10.5-1.4-5.75 0-11.41 1.56-5.66 1.56-9.6 4.76-3.93 3.2-4.75 8.12 0 0.33-0.09 0.74-0.08 0.41-0.08 0.74 0 3.61 2.71 7.14 2.71 3.53 8.45 6.48 1.48 0.66 1.48 2.46 0 1.81-1.64 0.99-9.03-4.76-13.21-10.42-4.19-5.66-4.19-10.75 0-7.38 7.96-12.72 7.96-5.33 22.73-5.33h29.04q2.62 0 7.8-1.15 5.16-1.15 10.58-3.36 5.41-2.22 9.27-5.25 3.85-3.04 3.86-6.98 0-2.13-1.48-4.59-0.33-0.49-0.33-1.15 0-0.99 0.82-0.99 0.66 0 1.15 0.82 2.46 3.62 2.46 7.39 0 4.43-3.2 8.2-3.2 3.78-8.61 6.65-5.42 2.87-12.06 4.35-6.65 1.47-13.54 1.31 3.12 2.63 4.59 5.91 1.48 3.28 1.48 6.89 0 6.07-3.61 12.39-3.61 6.32-10.17 11.65-6.57 5.33-15.35 8.61-8.78 3.28-19.28 3.28zm25.27-65.63q5.42 0 5.42-2.13 0-0.82-1.39-1.73-1.4-0.9-3.7-1.06-0.98-0.17-3.28-0.17-2.3 0-4.84 0-2.55 0-4.18 0 4.1 5.09 11.97 5.09z"/>
</svg>