<svg version="1.2" xmlns="http://www.w3.org/2000/svg" viewBox="0 0 1006 618" width="1006" height="618">
	<style>
		.s0 { fill: #231f20 } 
	</style>
	<path id="&lt;Compound Path&gt;" fill-rule="evenodd" class="s0" d="m165.19 289.51q-13.73 0-19.35-10.77-5.61-10.76-5.61-25.12-0.01-12.79 3.59-25.28 3.58-12.48 8.58-19.04-8.43 9.99-20.91 22.78-12.49 12.8-27.47 24.66-14.98 11.86-30.9 19.66-15.92 7.8-31.52 7.8-20.6 0.01-30.74-13.1-10.15-13.11-10.15-35.89 0-17.79 6.09-38.24 6.08-20.44 17.95-41.67 5.61-10.29 12.64-20.44 7.02-10.14 15.13-19.19-9.67-4.68-18.72-10.46-9.06-5.77-14.67-13.89-5.62-8.11-5.62-19.35 0-5.92 2.65-10.77 2.65-4.83 5.78-4.84 2.81 0.01 2.81 3.44-0.01 2.19-1.25 4.68-1.57 4.06-1.56 7.49-0.01 8.43 5.93 15.76 5.92 7.34 14.35 12.64 8.43 5.31 15.61 8.43 19.97-21.85 43.85-40.42 23.88-18.57 51.34-29.8 27.47-11.24 57.74-11.24 25.28 0 39.64 11.08 14.36 11.08 14.36 28.56 0 15.61-8.9 26.68-8.89 11.09-23.25 18.42-14.36 7.33-31.05 11.55-16.7 4.21-32.93 5.92-16.23 1.72-28.4 1.72-17.8 0-34.49-2.18-16.7-2.18-33.24-6.87-8.12 11.55-17.64 26.69-9.52 15.14-18.1 31.83-8.59 16.7-14.04 33.09-5.47 16.38-5.46 30.43-0.01 15.29 7.17 22.94 7.18 7.64 19.35 7.64 14.67 0 31.06-8.89 16.38-8.9 32.93-23.25 16.54-14.36 31.52-31.22 14.98-16.85 26.84-33.39 11.86-16.54 18.73-29.34 5.3-9.99 10.3-14.2 4.99-4.22 8.42-4.21 3.44 0 5.31 2.65 1.87 2.66 1.87 7.02 0 8.75-7.8 17.48-10.62 12.17-20.6 29.49-9.99 17.33-16.23 36.21-6.24 18.89-6.24 35.42 0 11.55 3.59 16.55 3.58 4.99 9.52 4.99 9.05 0 18.26-6.09 9.2-6.08 17.63-16.38 8.43-10.3 15.61-22.94 0.85-1.51 1.68-3.01 1.19-2.56 2.37-5.11 10.3-22.31 20.91-42.29 6.24-11.23 10.46-15.76 4.21-4.52 11.39-4.53 2.49 0.01 5.31 0.78 2.8 0.78 5.61 0.78 1.88 0.01 2.81-0.31-4.37 2.5-11.23 12.33-6.87 9.83-14.05 22.63-7.18 12.8-12.79 24.03 5.92-7.17 12.32-14.36 6.4-7.17 14.2-13.73 6.87-5.93 14.52-12.95 7.64-7.02 15.13-12.02 7.49-4.99 13.11-4.99 2.18 0 2.81 0.31 5.93 2.5 5.93 8.11 0 1.88-1.56 5.62-4.06 10.62-10.45 21.7-6.4 11.08-12.02 22.31 4.68-5.62 11.7-13.73 7.03-8.11 14.2-14.36 6.87-6.24 17.48-13.11 10.61-6.86 20.92-11.86 10.29-4.99 16.54-4.99 2.18 0 3.12 0.31-6.87 12.17-12.02 22-5.15 9.84-10.46 20.92-5.3 11.08-9.51 21.22-4.22 10.15-5.47 17.01-0.93 4.06-0.93 7.49 0 5 1.87 6.55 1.87 1.57 4.06 1.57 6.24 0 12.33-5.31 6.08-5.3 12.01-13.58 5.93-8.27 10.77-17.63 4.84-9.36 8.27-17.48 0.01 0 0.01 0 0.09-0.44 0.3-0.94 2.49-5.3 6.55-17.01 4.06-11.7 8.43-26.06 4.37-14.35 6.56-27.15 0.93-4.99 3.43-7.34 2.49-2.34 5.3-2.34 4.06 0 7.5 3.9 3.42 3.91 3.43 11.08 0 8.75-5.15 14.98-5.15 6.25-12.64 11.86 3.11 0.32 6.55 0.47 3.43 0.16 7.49 0.16 14.67 0 29.03-1.87 0.62 1.87 0.62 2.81 0 4.06-2.34 10.29-2.34 6.25-4.83 11.24-1.26 2.81-5 10.14-3.75 7.34-8.11 16.55-4.38 9.21-7.34 18.1-2.97 8.9-2.96 15.14-0.01 8.11 6.24 8.11 5.93 0 16.54-13.89 8.93-11.69 17.87-30.8 0.12-0.28 0.23-0.56 5.93-14.67 16.23-28.09 10.3-13.42 23.72-21.85 13.42-8.43 28.09-8.43 7.18 0 13.73 2.34 6.56 2.34 11.55 7.65 2.18 2.18 2.19 4.99-0.01 1.88-1.57 3.12-1.56 1.25-4.05 0.63-3.44-10.93-14.67-10.93-5.31 0.01-12.17 3.44-8.43 4.37-17.95 13.89-9.52 9.52-17.79 21.53-8.28 12.02-13.58 24.19-5.31 12.17-5.3 22.16 0 10.3 7.8 10.3 6.86 0 14.2-6.55 7.33-6.56 14.04-16.39 6.71-9.83 12.33-19.51 5.62-9.67 8.74-15.6 4.68-8.43 8.74-14.05 4.06-5.62 11.55-5.62 3.43 0 6.87 0.94 3.42 0.94 7.17 0.31-9.36 9.37-16.38 22.16-7.02 12.8-10.77 25.13-3.75 12.33-3.75 20.75 0 9.37 6.25 9.37 4.99 0 10.76-5.62 5.77-5.62 11.24-14.2 5.46-8.59 10.15-17.48 4.68-8.9 7.49-15.45 1.55 0 2.65 0.31 1.09 0.32 1.09 2.5-0.32 1.25-1.09 2.65-0.79 1.41-2.34 4.84-2.51 4.99-6.87 13.42-4.37 8.43-10.3 17.01-5.93 8.59-12.8 14.51-6.87 5.93-14.35 5.93-7.18 0-12.64-4.05-5.47-4.06-5.46-16.55-0.01-5.3 0.78-9.98 0.77-4.68 2.02-9.99-2.81 4.68-7.8 11.55-4.99 6.87-11.08 13.42-6.09 6.55-12.48 10.92-6.4 4.37-12.02 4.37-8.12 0-13.11-7.33-4.99-7.33-4.99-19.2 0-2.93 0.31-5.95-3.52 6.08-7.48 11.73-6.25 8.89-13.43 14.67-7.18 5.77-14.97 5.77-5.94 0-11.87-4.84-5.93-4.83-5.93-15.76 0-9.67 3.75-18.88 3.74-9.21 8.42-17.32 4.68-8.12 8.43-14.36 3.75-6.24 3.75-9.99 0-5.62-7.02-8.11-7.03-2.5-18.26-2.81-5.62 14.36-8.43 21.22-2.81 6.86-5.3 13.1 0 0 0 0.01-3.44 8.43-8.59 18.57-5.15 10.15-11.7 19.19-6.56 9.06-14.36 14.98-7.8 5.94-16.85 5.94-6.56 0-12.33-4.37-5.78-4.37-5.77-16.23 0-12.8 6.08-25.6 6.09-12.79 12.64-23.41 3.12-5.3 3.12-8.42 0-3.75-3.74-3.75-3.12 0-8.58 3.12-5.47 3.13-13.58 10.93-5 4.68-11.71 12.95-6.71 8.28-13.57 17.95-6.87 9.67-11.86 19.03-5 9.37-6.56 16.55-4.68 0-7.49-3.9-2.81-3.9-2.81-9.21 0-0.94 0-1.87 0-0.94 0.32-2.19 1.55-9.67 4.99-16.39 3.43-6.7 7.8-15.76 2.18-4.05 5-9.52 2.8-5.46 4.99-10.61 2.18-5.14 2.19-8.58-0.01-3.12-2.5-3.12-2.81 0-7.34 2.81-4.53 2.81-8.58 6.4-4.06 3.59-6.24 5.46-7.81 7.49-18.89 21.53-11.08 14.05-24.18 39.95-1.88 3.44-4.37 4.22-2.5 0.78-7.81 0.78-3.43-0.01-5.77 0.15-2.34 0.16-4.84 1.41 0.85-1.62 1.68-3.23-8.18 8.99-17.9 14.78-11.55 6.86-25.29 6.86zm-27.77-165.73q12.48 0 27.77-1.4 15.29-1.41 30.44-5.15 15.13-3.75 27.93-10.61 12.79-6.87 20.6-17.48 7.8-10.61 7.8-25.91 0-13.73-11.39-20.91-11.4-7.18-28.87-7.18-29.03 0-52.9 11.39-23.88 11.4-43.7 29.81-19.82 18.42-37.61 39.64 13.73 4.06 28.25 5.93 14.51 1.87 31.68 1.87z"/>
</svg>