<svg version="1.2" xmlns="http://www.w3.org/2000/svg" viewBox="0 0 1006 618" width="1006" height="618">
	<style>
		.s0 { fill: none;stroke: #000000;stroke-miterlimit:100;stroke-width: 10 } 
	</style>
	<path id="Layer 1" class="s0" d="m21 59l-3 20 9 16 22 15 38 13 42 4 45 1 43-12 25-16 16-24v-20l-14-17-18-7-25-1-35 8-59 34-55 57-38 73-5 30 3 26 13 17 28 4 31-12 44-36 78-98-45 78-11 37 3 27 18 10 21-7 31-28 48-82-50 93 29-36 17-21 25-22 26-11-40 78 1 15 14-31 23-24 26-23 36-15-28 39-12 35 4 18 13 2 16-8 18-25 12-28 25-71 2 17-12 23 37 3-6 19-17 32-6 25 7 12h12l18-20 29-41 41-41 23-1 14 12-7-9-19-4-32 17-27 41-8 23 2 16 9 8 11-2 15-14 27-36 21-27-19 35-6 23 2 15 10 6 9-2 13-14 11-17 11-23"/>
</svg>