<?xml version="1.0" standalone="no"?>
<svg viewBox="0 0 200 200" xmlns="http://www.w3.org/2000/svg">
  <path fill="#FF0066" d="M40.5,-72.5C51.9,-63.5,60.2,-51.5,62.2,-39C64.1,-26.4,59.7,-13.2,62.1,1.4C64.5,16,73.8,32,69.8,41.1C65.9,50.2,48.7,52.4,34.8,60.3C21,68.2,10.5,81.8,-2,85.3C-14.5,88.8,-29.1,82.1,-39.9,72.5C-50.7,62.8,-57.8,50.1,-63.7,37.6C-69.5,25,-74.1,12.5,-75.4,-0.7C-76.7,-14,-74.7,-28,-67.5,-38.2C-60.2,-48.3,-47.7,-54.7,-35.6,-63.3C-23.5,-71.9,-11.7,-82.8,1.4,-85.2C14.5,-87.6,29,-81.5,40.5,-72.5Z" transform="translate(100 100)" />
</svg>
