<svg version="1.2" xmlns="http://www.w3.org/2000/svg" viewBox="0 0 1006 618" width="1006" height="618">
	<style>
		.s0 { fill: none;stroke: #000000;stroke-miterlimit:100;stroke-width: 10 } 
	</style>
	<path id="Layer 1" class="s0" d="m444 388l2 21-8 20-16 17-21 8-20-4-16-17-6-32 14-34 48-32 37-9 62-7 36-4 14-6 1-12-8-4-15 10-6 8-15 29-30 72-39 85-29 36-44 30-74 20-43-2-29-13-18-25-8-27 3-31 9-21 12-13 13-7-22 13-16 40 3 38 24 26 50 24 74-8 55-30 50-61 26-56-37 2 172 2 24-6-16 7-20-4 13-43 24-49 22-30 16-6-25 13-29 62-31 71-20 72 9 22 14 5 18-7 11-12 31-43 38-47 19-8h15l9 6 5 9-10-10-11-3-16 3-30 20-25 52v18l6 11 14-3 15-12 47-65-18 42-5 31 9 9 11-4 20-22 17-35 20-50 7-24 6 17-16 23 41-1-15 22-10 30-9 20 4 17 11 4 14-10 26-32 16-39v-19l10 2-34 79 6 16 11 4 17-8 21-32 27-53 13-17 14-9 13 3-8-4-15 5-6 20 3 22 10 22-2 23-6 16-9 8-14 5-13 1-10-7-5-11 8-17 5 3 2 8 2 7 4 7 8 5 18 4 14-2 12-8 9-11 17-36"/>
</svg>