<svg version="1.2" xmlns="http://www.w3.org/2000/svg" viewBox="0 0 1006 618" width="1006" height="618">
	<style>
		.s0 { fill: #231f20 } 
	</style>
	<path id="&lt;Compound Path&gt;" fill-rule="evenodd" class="s0" d="m307.12 594.05q-18.11 0-35.74-4.22-17.64-4.21-31.84-13.89-14.2-9.67-22.62-26.06-8.43-16.38-8.43-40.73 0-17.47 5.93-32.77 5.93-15.29 15.6-24.81 9.68-9.52 20.6-9.52 3.75 0 3.75 1.87 0 1.87-4.06 3.12-7.8 1.88-15.14 9.52-7.33 7.65-12.01 20.13-4.68 12.49-4.68 29.65-0.01 20.6 7.64 33.71 7.65 13.11 19.82 20.6 12.17 7.49 25.75 10.46 13.58 2.96 25.75 2.96 34.33 0 62.89-10.77 28.56-10.77 51.5-29.8 22.94-19.04 39.95-43.85 17.01-24.82 28.24-53.22 0.31-0.94 0.63-1.87-5 0.31-8.43 0.93-3.44 0.63-6.55 1.88-6.87 2.5-10.3 2.49-1.87 0.01-1.87-2.49 0-4.37 4.52-9.21 4.52-4.83 11.08-5.15 2.5 0 7.02-0.16 4.53-0.15 9.52-0.15 5.93-14.98 12.8-30.9 6.86-15.92 13.42-30.28 6.55-14.35 11.55-24.97 4.99-10.6 7.18-14.98-17.17 1.88-35.58 3.28-18.42 1.41-36.21 4.37-17.79 2.97-33.71 9.52-29.34 12.17-42.6 31.99-13.27 19.82-13.26 44.16 0 15.3 8.42 25.29 8.43 9.99 22.16 9.98 12.49 0.01 21.85-7.64 9.36-7.65 14.83-19.35 5.45-11.71 5.46-23.26 0-3.74-0.78-6.71-0.78-2.96-1.41-4.21 0-2.18 1.88-2.19 4.05 0.01 5.46 5.78 1.4 5.78 1.4 11.39 0 12.49-6.71 24.66-6.71 12.17-18.41 20.13-11.71 7.96-26.38 7.96-13.1 0-23.87-6.71-10.77-6.71-17.32-18.26-6.56-11.55-6.56-25.6 0-19.97 9.05-35.42 9.05-15.44 24.82-26.37 15.75-10.92 35.42-16.55 19.03-5.61 39.48-7.8 20.44-2.18 40.26-3.27 19.82-1.09 36.37-2.66 3.11-5.61 7.95-11.54 4.84-5.93 10.77-10.15 5.93-4.21 12.17-4.21 4.68 0 8.12 2.34 3.43 2.34 3.43 7.33 0 7.49-5.77 12.33-5.78 4.84-14.52 7.34-8.74 2.5-17.16 3.74-3.44 6.56-8.12 18.42-4.68 11.86-10.14 26.37-5.47 14.52-10.92 29.34-5.47 14.83-10.15 27.62 10.61 0.63 24.81 1.4 14.2 0.79 29.19 1.57 14.98 0.78 28.56 1.4 13.57 0.62 22.31 0.62 3.43-8.73 7.18-18.1 19.35-47.12 35.58-74.28 16.23-27.15 25.91-30.28 12.48-4.05 17.16-4.05 1.87 0 1.87 0.62 0 0.94-4.37 3.12-2.18 1.25-8.89 10.92-6.71 9.68-16.07 26.38-9.37 16.7-19.67 38.55-10.29 21.85-19.66 47.44 5.3 0 10.77-0.32 5.46-0.3 8.27-0.62 3.43-0.62 5.77-1.56 2.34-0.94 3.59-0.94 1.56 0 1.56 1.56 0 0.94-2.49 3.12-5.31 3.75-12.8 6.56-7.49 2.81-18.73 3.43-7.18 20.6-13.42 42.29-6.24 21.7-6.24 40.11 0 6.87 2.5 13.11 2.49 6.24 9.36 6.24 8.11 0 17.79-8.89 9.67-8.9 19.04-22.95 6.51-9.76 11.51-20.27 0.46-1.25 0.97-2.51 5.93-14.67 16.23-28.09 10.3-13.42 23.72-21.85 13.42-8.42 28.09-8.42 7.18 0 13.74 2.34 6.55 2.34 11.54 7.64 2.19 2.19 2.19 5 0 1.87-1.56 3.12-1.57 1.25-4.06 0.62-3.44-10.92-14.67-10.92-5.31 0-12.17 3.43-8.43 4.37-17.95 13.89-9.52 9.52-17.79 21.54-8.27 12.01-13.58 24.19-5.31 12.17-5.3 22.15 0 10.3 7.8 10.3 6.86 0 14.2-6.55 7.33-6.55 14.05-16.39 6.71-9.83 12.33-19.5 5.61-9.67 8.74-15.61 4.68-8.43 8.73-14.04 4.06-5.62 11.55-5.62 3.43 0 6.87 0.93 3.43 0.94 7.18 0.32-9.37 9.36-16.39 22.16-7.02 12.8-10.77 25.12-3.74 12.33-3.74 20.76-0.01 9.36 6.24 9.36 4.99 0 10.77-5.62 5.77-5.61 11.23-14.2 5.46-8.58 10.15-17.48 4.68-8.89 7.49-15.45 0 0 0 0 0.1-0.43 0.31-0.93 2.49-5.31 6.55-17.01 4.05-11.71 8.43-26.06 4.36-14.36 6.55-27.16 0.93-4.99 3.43-7.33 2.5-2.34 5.31-2.34 4.05 0 7.49 3.9 3.43 3.9 3.43 11.08 0 8.74-5.15 14.98-5.15 6.25-12.64 11.86 3.12 0.32 6.56 0.47 3.43 0.16 7.49 0.15 14.66 0 29.03-1.87 0.62 1.87 0.62 2.81 0 4.06-2.34 10.3-2.34 6.25-4.84 11.24-1.25 2.81-4.99 10.14-3.75 7.34-8.12 16.54-4.37 9.21-7.33 18.1-2.97 8.9-2.97 15.14 0 8.12 6.24 8.11 5.93 0.01 16.55-13.88 8.12-10.64 16.26-27.42l17.44-44.52q0.94-2.5 0.94-4.37 0-3.12-1.56-5.47-1.57-2.34-2.19-3.27l17.17-0.63q4.68-0.31 6.71 1.1 2.02 1.4 2.03 3.27-0.01 1.88-2.19 6.87-3.12 7.49-8.43 18.73-5.3 11.23-10.45 23.09-5.15 11.86-8.74 22.16-3.59 10.3-3.59 15.92 0 4.06 2.03 6.87 2.02 2.8 7.02 2.8 6.56 0 12.95-5.14 4.57-3.68 8.75-8.88-0.17-1.25-0.17-2.52 0.01-7.17 3.59-13.26 3.59-6.09 9.52-6.09l0.31-0.62q3.92-7.13 7.69-14.41 0.54-1.24 1.06-2.45 0.1 0 0.2 0 2.19-4.26 4.32-8.58 6.39-12.95 14.2-27.62 6.55-12.17 14.2-19.98 7.65-7.8 17.95-7.8 2.49 0 6.86 1.09 4.37 1.1 4.37 4.53 0 2.5-2.81 2.5-2.18 0-4.83-1.25-2.66-1.25-4.22-1.25-5.93 0-9.98 6.87-4.06 6.87-4.06 14.66 0 8.43 2.81 15.14 2.81 6.72 6.55 12.96 3.75 6.24 6.56 12.63 2.8 6.4 2.8 13.89 0 14.99-5.77 24.19-5.78 9.21-15.14 13.89h0.31q16.55 0 27.32-15.45 10.76-15.45 21.38-40.42 3.74 0 3.74 2.81-5.93 14.05-13.11 27.47-7.18 13.42-16.85 22.16-9.68 8.74-23.72 8.74-5.94-0.01-10.93-1.25-7.18 1.56-15.6 1.56-12.8 0-20.76-7.96-4.06-4.07-6.05-8.34-4.5 5.21-9.55 9.12-7.65 5.93-16.39 5.93-11.54 0-16.22-6.71-4.69-6.71-4.69-15.45 0-2.19 0.24-4.42-2.08 3.3-4.29 6.45-6.25 8.9-13.42 14.67-7.19 5.78-14.98 5.77-5.94 0.01-11.86-4.83-5.93-4.84-5.93-15.77 0-9.67 3.74-18.88 3.75-9.2 8.43-17.32 4.68-8.11 8.43-14.36 3.74-6.24 3.74-9.99 0-5.61-7.02-8.11-7.02-2.5-18.26-2.81-5.62 14.36-8.43 21.22-2.8 6.87-5.3 13.1 0 0.01 0 0.01-0.31 1.25-1.09 2.66-0.78 1.4-2.34 4.83-2.5 5-6.87 13.42-4.37 8.43-10.3 17.01-5.93 8.59-12.79 14.52-6.87 5.93-14.36 5.93-7.18 0-12.64-4.06-5.46-4.06-5.46-16.54 0-5.31 0.78-9.99 0.77-4.68 2.03-9.99-2.82 4.69-7.81 11.55-4.99 6.87-11.07 13.42-6.1 6.56-12.49 10.92-6.4 4.38-12.02 4.37-8.12 0.01-13.1-7.33-5-7.33-5-19.19 0-3.39 0.42-6.91-2.53 4.43-5.25 8.78-10.15 16.23-22.16 26.68-12.02 10.46-25.13 10.46-10.3 0-16.7-7.49-6.4-7.49-6.39-22.16-0.01-14.35 5.77-36.52 5.77-22.16 14.82-47.44-9.36-0.31-23.09-0.94-13.74-0.62-29.03-1.4-15.29-0.77-29.34-1.4-14.04-0.63-23.41-0.94-1.25 3.75-2.49 7.18-1.25 3.43-2.19 6.24-9.36 27.47-26.06 53.37-16.7 25.91-39.95 46.82-23.25 20.9-53.06 33.24-29.8 12.33-65.38 12.33zm238.45-280.59q3.12-0.62 5.46-1.25 2.34-0.62 4.53-1.25 5.61-1.87 7.96-4.37 2.33-2.49 2.34-4.37-0.01-3.74-4.37-3.74-2.19 0-5.31 1.87-3.12 1.88-6.24 6.24-1.25 1.88-2.34 3.59-1.1 1.72-2.03 3.28zm348.3 99.56q-4.06 0-7.02-3.12-2.97-3.12-2.96-7.49-0.01-5.31 4.37-9.52 4.36-4.21 9.67-4.21 4.37 0 7.49 2.81 3.12 2.81 3.12 7.17 0 5.63-4.37 9.99-4.37 4.37-10.3 4.37zm9.99 110.8q-0.01 5 3.43 8.74 3.43 3.75 10.3 3.74 3.12 0.01 5.93-0.62-6.56-4.05-10.46-10.3-3.9-6.24-3.9-14.35-2.81 3.12-4.05 6.39-1.26 3.28-1.25 6.4zm10.3-15.61q-0.01 7.5 3.43 14.36 3.43 6.87 12.48 10.3 8.12-4.68 12.65-14.51 4.52-9.83 4.52-20.44 0-8.74-1.87-17.79-1.88-9.05-3.9-17.79-2.04-8.74-2.03-15.61-0.01-2.18 0.15-3.9 0.16-1.71 0.47-3.28-5.62 8.43-11.39 19.66-5.78 11.24-11.08 21.54-5.31 10.3-9.68 16.85 6.24 0.94 6.25 10.61z"/>
</svg>